<svg xmlns="http://www.w3.org/2000/svg" xmlns:xlink="http://www.w3.org/1999/xlink" width="400" zoomAndPan="magnify" viewBox="0 0 300 299.999988" height="400" preserveAspectRatio="xMidYMid meet" version="1.0"><defs><g/></defs><rect x="-30" width="360" fill="#ffffff" y="-29.999999" height="359.999986" fill-opacity="1"/><rect x="-30" width="360" fill="#d1d2d2" y="-29.999999" height="359.999986" fill-opacity="1"/><g fill="#000000" fill-opacity="1"><g transform="translate(51.406243, 139.499989)"><g><path d="M 13.59375 0 L 12.671875 -2.375 L 12.546875 -2.375 C 11.742188 -1.363281 10.914062 -0.660156 10.0625 -0.265625 C 9.21875 0.117188 8.113281 0.3125 6.75 0.3125 C 5.070312 0.3125 3.75 -0.164062 2.78125 -1.125 C 1.820312 -2.082031 1.34375 -3.445312 1.34375 -5.21875 C 1.34375 -7.070312 1.988281 -8.4375 3.28125 -9.3125 C 4.582031 -10.195312 6.539062 -10.6875 9.15625 -10.78125 L 12.1875 -10.875 L 12.1875 -11.640625 C 12.1875 -13.410156 11.28125 -14.296875 9.46875 -14.296875 C 8.070312 -14.296875 6.429688 -13.875 4.546875 -13.03125 L 2.96875 -16.25 C 4.976562 -17.300781 7.207031 -17.828125 9.65625 -17.828125 C 12 -17.828125 13.796875 -17.316406 15.046875 -16.296875 C 16.296875 -15.273438 16.921875 -13.722656 16.921875 -11.640625 L 16.921875 0 Z M 12.1875 -8.09375 L 10.34375 -8.03125 C 8.957031 -7.988281 7.925781 -7.738281 7.25 -7.28125 C 6.570312 -6.820312 6.234375 -6.125 6.234375 -5.1875 C 6.234375 -3.84375 7.003906 -3.171875 8.546875 -3.171875 C 9.648438 -3.171875 10.53125 -3.488281 11.1875 -4.125 C 11.851562 -4.757812 12.1875 -5.601562 12.1875 -6.65625 Z M 12.1875 -8.09375 "/></g></g></g><g fill="#000000" fill-opacity="1"><g transform="translate(70.729648, 139.499989)"><g><path d="M 9.734375 -3.421875 C 10.941406 -3.421875 11.828125 -3.765625 12.390625 -4.453125 C 12.953125 -5.148438 13.257812 -6.363281 13.3125 -8.09375 L 13.3125 -8.671875 C 13.3125 -10.546875 13.019531 -11.890625 12.4375 -12.703125 C 11.863281 -13.515625 10.9375 -13.921875 9.65625 -13.921875 C 7.414062 -13.921875 6.296875 -12.160156 6.296875 -8.640625 C 6.296875 -6.890625 6.570312 -5.582031 7.125 -4.71875 C 7.6875 -3.851562 8.554688 -3.421875 9.734375 -3.421875 Z M 8.03125 0.3125 C 5.96875 0.3125 4.351562 -0.476562 3.1875 -2.0625 C 2.019531 -3.65625 1.4375 -5.867188 1.4375 -8.703125 C 1.4375 -11.554688 2.03125 -13.785156 3.21875 -15.390625 C 4.414062 -16.992188 6.050781 -17.796875 8.125 -17.796875 C 9.226562 -17.796875 10.191406 -17.585938 11.015625 -17.171875 C 11.835938 -16.753906 12.5625 -16.109375 13.1875 -15.234375 L 13.3125 -15.234375 L 13.734375 -17.46875 L 17.765625 -17.46875 L 17.765625 7.6875 L 12.984375 7.6875 L 12.984375 0.359375 C 12.984375 -0.273438 13.050781 -1.148438 13.1875 -2.265625 L 12.984375 -2.265625 C 12.472656 -1.421875 11.796875 -0.78125 10.953125 -0.34375 C 10.109375 0.09375 9.132812 0.3125 8.03125 0.3125 Z M 8.03125 0.3125 "/></g></g></g><g fill="#000000" fill-opacity="1"><g transform="translate(90.974702, 139.499989)"><g><path d="M 14.875 0 L 14.234375 -2.234375 L 13.984375 -2.234375 C 13.472656 -1.421875 12.75 -0.789062 11.8125 -0.34375 C 10.875 0.09375 9.804688 0.3125 8.609375 0.3125 C 6.554688 0.3125 5.007812 -0.234375 3.96875 -1.328125 C 2.925781 -2.429688 2.40625 -4.015625 2.40625 -6.078125 L 2.40625 -17.46875 L 7.171875 -17.46875 L 7.171875 -7.265625 C 7.171875 -6.003906 7.394531 -5.054688 7.84375 -4.421875 C 8.289062 -3.796875 9.003906 -3.484375 9.984375 -3.484375 C 11.316406 -3.484375 12.28125 -3.925781 12.875 -4.8125 C 13.46875 -5.707031 13.765625 -7.1875 13.765625 -9.25 L 13.765625 -17.46875 L 18.53125 -17.46875 L 18.53125 0 Z M 14.875 0 "/></g></g></g><g fill="#000000" fill-opacity="1"><g transform="translate(112.000816, 139.499989)"><g><path d="M 2.296875 -21.984375 C 2.296875 -23.535156 3.160156 -24.3125 4.890625 -24.3125 C 6.617188 -24.3125 7.484375 -23.535156 7.484375 -21.984375 C 7.484375 -21.242188 7.265625 -20.664062 6.828125 -20.25 C 6.398438 -19.84375 5.753906 -19.640625 4.890625 -19.640625 C 3.160156 -19.640625 2.296875 -20.421875 2.296875 -21.984375 Z M 7.265625 0 L 2.5 0 L 2.5 -17.46875 L 7.265625 -17.46875 Z M 7.265625 0 "/></g></g></g><g fill="#000000" fill-opacity="1"><g transform="translate(121.764056, 139.499989)"><g/></g></g><g fill="#000000" fill-opacity="1"><g transform="translate(130.074526, 139.499989)"><g><path d="M 2.296875 -21.984375 C 2.296875 -23.535156 3.160156 -24.3125 4.890625 -24.3125 C 6.617188 -24.3125 7.484375 -23.535156 7.484375 -21.984375 C 7.484375 -21.242188 7.265625 -20.664062 6.828125 -20.25 C 6.398438 -19.84375 5.753906 -19.640625 4.890625 -19.640625 C 3.160156 -19.640625 2.296875 -20.421875 2.296875 -21.984375 Z M 7.265625 0 L 2.5 0 L 2.5 -17.46875 L 7.265625 -17.46875 Z M 7.265625 0 "/></g></g></g><g fill="#000000" fill-opacity="1"><g transform="translate(139.837766, 139.499989)"><g><path d="M 18.140625 0 L 13.375 0 L 13.375 -10.203125 C 13.375 -11.460938 13.160156 -12.40625 12.734375 -13.03125 C 12.316406 -13.664062 11.65625 -13.984375 10.75 -13.984375 C 9.53125 -13.984375 8.644531 -13.535156 8.09375 -12.640625 C 7.539062 -11.742188 7.265625 -10.269531 7.265625 -8.21875 L 7.265625 0 L 2.5 0 L 2.5 -17.46875 L 6.140625 -17.46875 L 6.78125 -15.234375 L 7.046875 -15.234375 C 7.515625 -16.035156 8.191406 -16.660156 9.078125 -17.109375 C 9.960938 -17.566406 10.976562 -17.796875 12.125 -17.796875 C 14.738281 -17.796875 16.507812 -16.941406 17.4375 -15.234375 L 17.859375 -15.234375 C 18.328125 -16.046875 19.015625 -16.675781 19.921875 -17.125 C 20.835938 -17.570312 21.867188 -17.796875 23.015625 -17.796875 C 24.992188 -17.796875 26.488281 -17.285156 27.5 -16.265625 C 28.519531 -15.253906 29.03125 -13.628906 29.03125 -11.390625 L 29.03125 0 L 24.25 0 L 24.25 -10.203125 C 24.25 -11.460938 24.035156 -12.40625 23.609375 -13.03125 C 23.191406 -13.664062 22.53125 -13.984375 21.625 -13.984375 C 20.457031 -13.984375 19.582031 -13.566406 19 -12.734375 C 18.425781 -11.898438 18.140625 -10.578125 18.140625 -8.765625 Z M 18.140625 0 "/></g></g></g><g fill="#000000" fill-opacity="1"><g transform="translate(171.251967, 139.499989)"><g><path d="M 13.59375 0 L 12.671875 -2.375 L 12.546875 -2.375 C 11.742188 -1.363281 10.914062 -0.660156 10.0625 -0.265625 C 9.21875 0.117188 8.113281 0.3125 6.75 0.3125 C 5.070312 0.3125 3.75 -0.164062 2.78125 -1.125 C 1.820312 -2.082031 1.34375 -3.445312 1.34375 -5.21875 C 1.34375 -7.070312 1.988281 -8.4375 3.28125 -9.3125 C 4.582031 -10.195312 6.539062 -10.6875 9.15625 -10.78125 L 12.1875 -10.875 L 12.1875 -11.640625 C 12.1875 -13.410156 11.28125 -14.296875 9.46875 -14.296875 C 8.070312 -14.296875 6.429688 -13.875 4.546875 -13.03125 L 2.96875 -16.25 C 4.976562 -17.300781 7.207031 -17.828125 9.65625 -17.828125 C 12 -17.828125 13.796875 -17.316406 15.046875 -16.296875 C 16.296875 -15.273438 16.921875 -13.722656 16.921875 -11.640625 L 16.921875 0 Z M 12.1875 -8.09375 L 10.34375 -8.03125 C 8.957031 -7.988281 7.925781 -7.738281 7.25 -7.28125 C 6.570312 -6.820312 6.234375 -6.125 6.234375 -5.1875 C 6.234375 -3.84375 7.003906 -3.171875 8.546875 -3.171875 C 9.648438 -3.171875 10.53125 -3.488281 11.1875 -4.125 C 11.851562 -4.757812 12.1875 -5.601562 12.1875 -6.65625 Z M 12.1875 -8.09375 "/></g></g></g><g fill="#000000" fill-opacity="1"><g transform="translate(190.575372, 139.499989)"><g><path d="M 17.703125 -17.46875 L 17.703125 -15.046875 L 14.96875 -14.34375 C 15.46875 -13.5625 15.71875 -12.6875 15.71875 -11.71875 C 15.71875 -9.84375 15.0625 -8.378906 13.75 -7.328125 C 12.445312 -6.285156 10.632812 -5.765625 8.3125 -5.765625 L 7.453125 -5.8125 L 6.75 -5.890625 C 6.257812 -5.515625 6.015625 -5.097656 6.015625 -4.640625 C 6.015625 -3.953125 6.890625 -3.609375 8.640625 -3.609375 L 11.609375 -3.609375 C 13.523438 -3.609375 14.984375 -3.195312 15.984375 -2.375 C 16.992188 -1.550781 17.5 -0.34375 17.5 1.25 C 17.5 3.289062 16.644531 4.875 14.9375 6 C 13.238281 7.125 10.796875 7.6875 7.609375 7.6875 C 5.171875 7.6875 3.304688 7.257812 2.015625 6.40625 C 0.734375 5.5625 0.09375 4.375 0.09375 2.84375 C 0.09375 1.789062 0.421875 0.910156 1.078125 0.203125 C 1.734375 -0.503906 2.695312 -1.007812 3.96875 -1.3125 C 3.476562 -1.519531 3.050781 -1.859375 2.6875 -2.328125 C 2.320312 -2.804688 2.140625 -3.3125 2.140625 -3.84375 C 2.140625 -4.507812 2.332031 -5.0625 2.71875 -5.5 C 3.101562 -5.945312 3.660156 -6.382812 4.390625 -6.8125 C 3.472656 -7.207031 2.742188 -7.84375 2.203125 -8.71875 C 1.671875 -9.59375 1.40625 -10.625 1.40625 -11.8125 C 1.40625 -13.71875 2.023438 -15.191406 3.265625 -16.234375 C 4.503906 -17.273438 6.273438 -17.796875 8.578125 -17.796875 C 9.066406 -17.796875 9.644531 -17.75 10.3125 -17.65625 C 10.988281 -17.570312 11.421875 -17.507812 11.609375 -17.46875 Z M 4.21875 2.46875 C 4.21875 3.125 4.53125 3.640625 5.15625 4.015625 C 5.789062 4.390625 6.675781 4.578125 7.8125 4.578125 C 9.519531 4.578125 10.859375 4.34375 11.828125 3.875 C 12.796875 3.40625 13.28125 2.765625 13.28125 1.953125 C 13.28125 1.296875 12.992188 0.84375 12.421875 0.59375 C 11.847656 0.34375 10.960938 0.21875 9.765625 0.21875 L 7.296875 0.21875 C 6.421875 0.21875 5.6875 0.421875 5.09375 0.828125 C 4.507812 1.242188 4.21875 1.789062 4.21875 2.46875 Z M 5.953125 -11.75 C 5.953125 -10.800781 6.164062 -10.050781 6.59375 -9.5 C 7.03125 -8.945312 7.691406 -8.671875 8.578125 -8.671875 C 9.472656 -8.671875 10.128906 -8.945312 10.546875 -9.5 C 10.960938 -10.050781 11.171875 -10.800781 11.171875 -11.75 C 11.171875 -13.851562 10.304688 -14.90625 8.578125 -14.90625 C 6.828125 -14.90625 5.953125 -13.851562 5.953125 -11.75 Z M 5.953125 -11.75 "/></g></g></g><g fill="#000000" fill-opacity="1"><g transform="translate(208.649082, 139.499989)"><g><path d="M 9.734375 -14.40625 C 8.722656 -14.40625 7.929688 -14.082031 7.359375 -13.4375 C 6.785156 -12.800781 6.457031 -11.894531 6.375 -10.71875 L 13.0625 -10.71875 C 13.039062 -11.894531 12.734375 -12.800781 12.140625 -13.4375 C 11.546875 -14.082031 10.742188 -14.40625 9.734375 -14.40625 Z M 10.40625 0.3125 C 7.59375 0.3125 5.394531 -0.460938 3.8125 -2.015625 C 2.226562 -3.566406 1.4375 -5.765625 1.4375 -8.609375 C 1.4375 -11.535156 2.164062 -13.796875 3.625 -15.390625 C 5.09375 -16.992188 7.117188 -17.796875 9.703125 -17.796875 C 12.171875 -17.796875 14.09375 -17.09375 15.46875 -15.6875 C 16.84375 -14.28125 17.53125 -12.335938 17.53125 -9.859375 L 17.53125 -7.546875 L 6.265625 -7.546875 C 6.316406 -6.191406 6.71875 -5.132812 7.46875 -4.375 C 8.21875 -3.613281 9.269531 -3.234375 10.625 -3.234375 C 11.675781 -3.234375 12.671875 -3.34375 13.609375 -3.5625 C 14.546875 -3.78125 15.523438 -4.128906 16.546875 -4.609375 L 16.546875 -0.921875 C 15.710938 -0.503906 14.820312 -0.195312 13.875 0 C 12.925781 0.207031 11.769531 0.3125 10.40625 0.3125 Z M 10.40625 0.3125 "/></g></g></g><g fill="#000000" fill-opacity="1"><g transform="translate(227.550715, 139.499989)"><g><path d="M 18.625 0 L 13.859375 0 L 13.859375 -10.203125 C 13.859375 -11.460938 13.632812 -12.40625 13.1875 -13.03125 C 12.738281 -13.664062 12.023438 -13.984375 11.046875 -13.984375 C 9.710938 -13.984375 8.75 -13.535156 8.15625 -12.640625 C 7.5625 -11.753906 7.265625 -10.28125 7.265625 -8.21875 L 7.265625 0 L 2.5 0 L 2.5 -17.46875 L 6.140625 -17.46875 L 6.78125 -15.234375 L 7.046875 -15.234375 C 7.578125 -16.078125 8.304688 -16.710938 9.234375 -17.140625 C 10.171875 -17.578125 11.234375 -17.796875 12.421875 -17.796875 C 14.453125 -17.796875 15.992188 -17.242188 17.046875 -16.140625 C 18.097656 -15.046875 18.625 -13.460938 18.625 -11.390625 Z M 18.625 0 "/></g></g></g></svg>