<svg xmlns="http://www.w3.org/2000/svg" xmlns:xlink="http://www.w3.org/1999/xlink" width="300" zoomAndPan="magnify" viewBox="0 0 224.87999 60" height="80" preserveAspectRatio="xMidYMid meet" version="1.0"><defs><g/><clipPath id="7c5adc9e51"><path d="M 0 0.015625 L 224.761719 0.015625 L 224.761719 59.984375 L 0 59.984375 Z M 0 0.015625 " clip-rule="nonzero"/></clipPath><clipPath id="52aaf33bc4"><path d="M 34.429688 13.707031 L 58.417969 13.707031 L 58.417969 37.695312 L 34.429688 37.695312 Z M 34.429688 13.707031 " clip-rule="nonzero"/></clipPath><clipPath id="bb23b80235"><rect x="0" width="144" y="0" height="21"/></clipPath></defs><g clip-path="url(#7c5adc9e51)"><path fill="#ffffff" d="M 0 0.015625 L 224.878906 0.015625 L 224.878906 59.984375 L 0 59.984375 Z M 0 0.015625 " fill-opacity="1" fill-rule="nonzero"/><path fill="#ffffff" d="M 0 0.015625 L 224.878906 0.015625 L 224.878906 59.984375 L 0 59.984375 Z M 0 0.015625 " fill-opacity="1" fill-rule="nonzero"/></g><g clip-path="url(#52aaf33bc4)"><path fill="#07419c" d="M 50.40625 25.507812 C 50.769531 25.234375 51.101562 24.925781 51.402344 24.582031 C 51.703125 24.238281 51.964844 23.863281 52.1875 23.464844 C 52.410156 23.066406 52.589844 22.648438 52.722656 22.214844 C 52.859375 21.777344 52.949219 21.332031 52.992188 20.878906 C 53.035156 20.421875 53.027344 19.96875 52.976562 19.515625 C 52.921875 19.0625 52.824219 18.617188 52.679688 18.183594 C 52.535156 17.75 52.347656 17.335938 52.113281 16.945312 C 51.882812 16.550781 51.613281 16.183594 51.304688 15.847656 C 51 15.507812 50.660156 15.207031 50.289062 14.941406 C 49.917969 14.671875 49.523438 14.449219 49.105469 14.265625 C 48.6875 14.078125 48.253906 13.941406 47.808594 13.847656 C 47.359375 13.753906 46.910156 13.707031 46.453125 13.707031 C 45.996094 13.707031 45.542969 13.753906 45.097656 13.847656 C 44.648438 13.945312 44.21875 14.085938 43.800781 14.269531 C 43.382812 14.453125 42.988281 14.679688 42.617188 14.949219 C 42.246094 15.214844 41.910156 15.519531 41.601562 15.855469 C 41.292969 16.195312 41.027344 16.5625 40.796875 16.953125 C 40.566406 17.347656 40.378906 17.761719 40.234375 18.195312 C 40.089844 18.628906 39.992188 19.074219 39.9375 19.527344 C 39.886719 19.980469 39.882812 20.433594 39.925781 20.890625 C 39.96875 21.34375 40.058594 21.789062 40.195312 22.226562 C 40.332031 22.664062 40.511719 23.078125 40.738281 23.476562 C 40.960938 23.875 41.222656 24.246094 41.523438 24.589844 C 41.824219 24.933594 42.15625 25.242188 42.523438 25.515625 C 41.949219 25.71875 41.394531 25.964844 40.859375 26.253906 C 40.324219 26.542969 39.8125 26.871094 39.328125 27.238281 C 38.84375 27.605469 38.386719 28.007812 37.964844 28.445312 C 37.542969 28.882812 37.152344 29.347656 36.800781 29.84375 C 36.449219 30.339844 36.140625 30.863281 35.867188 31.40625 C 35.597656 31.949219 35.367188 32.511719 35.183594 33.09375 C 35 33.671875 34.859375 34.261719 34.765625 34.863281 C 34.671875 35.464844 34.621094 36.070312 34.621094 36.675781 C 34.621094 36.8125 34.648438 36.941406 34.699219 37.0625 C 34.75 37.1875 34.824219 37.296875 34.917969 37.390625 C 35.011719 37.484375 35.121094 37.558594 35.246094 37.609375 C 35.367188 37.660156 35.496094 37.683594 35.628906 37.683594 C 35.761719 37.683594 35.890625 37.660156 36.015625 37.609375 C 36.140625 37.558594 36.246094 37.484375 36.34375 37.390625 C 36.4375 37.296875 36.511719 37.1875 36.5625 37.0625 C 36.613281 36.941406 36.636719 36.8125 36.636719 36.675781 C 36.636719 36.03125 36.699219 35.390625 36.828125 34.757812 C 36.953125 34.125 37.140625 33.511719 37.386719 32.914062 C 37.632812 32.316406 37.9375 31.75 38.296875 31.210938 C 38.65625 30.675781 39.0625 30.179688 39.519531 29.722656 C 39.976562 29.265625 40.472656 28.859375 41.007812 28.5 C 41.546875 28.140625 42.113281 27.835938 42.710938 27.589844 C 43.308594 27.34375 43.921875 27.15625 44.554688 27.03125 C 45.1875 26.902344 45.828125 26.839844 46.472656 26.839844 C 47.121094 26.839844 47.761719 26.902344 48.394531 27.03125 C 49.027344 27.15625 49.640625 27.34375 50.238281 27.589844 C 50.835938 27.835938 51.402344 28.140625 51.941406 28.5 C 52.476562 28.859375 52.972656 29.265625 53.429688 29.722656 C 53.886719 30.179688 54.292969 30.675781 54.652344 31.210938 C 55.011719 31.75 55.316406 32.316406 55.5625 32.914062 C 55.808594 33.511719 55.996094 34.125 56.121094 34.757812 C 56.25 35.390625 56.3125 36.03125 56.3125 36.675781 C 56.3125 36.8125 56.335938 36.941406 56.386719 37.0625 C 56.4375 37.1875 56.511719 37.296875 56.605469 37.390625 C 56.699219 37.484375 56.808594 37.558594 56.933594 37.609375 C 57.058594 37.660156 57.183594 37.683594 57.320312 37.683594 C 57.453125 37.683594 57.582031 37.660156 57.703125 37.609375 C 57.828125 37.558594 57.9375 37.484375 58.03125 37.390625 C 58.125 37.296875 58.199219 37.1875 58.25 37.0625 C 58.300781 36.941406 58.328125 36.8125 58.328125 36.675781 C 58.324219 36.066406 58.277344 35.460938 58.183594 34.859375 C 58.089844 34.257812 57.949219 33.667969 57.765625 33.085938 C 57.578125 32.507812 57.347656 31.945312 57.078125 31.398438 C 56.804688 30.851562 56.492188 30.332031 56.140625 29.835938 C 55.789062 29.335938 55.398438 28.871094 54.972656 28.433594 C 54.550781 27.996094 54.09375 27.59375 53.609375 27.226562 C 53.121094 26.859375 52.609375 26.53125 52.070312 26.246094 C 51.535156 25.957031 50.980469 25.710938 50.40625 25.507812 Z M 46.457031 15.734375 C 46.757812 15.734375 47.050781 15.765625 47.34375 15.820312 C 47.636719 15.878906 47.921875 15.964844 48.199219 16.082031 C 48.472656 16.195312 48.734375 16.335938 48.984375 16.5 C 49.230469 16.667969 49.460938 16.855469 49.671875 17.066406 C 49.882812 17.277344 50.070312 17.507812 50.238281 17.753906 C 50.402344 18.003906 50.542969 18.265625 50.65625 18.539062 C 50.773438 18.816406 50.859375 19.101562 50.917969 19.394531 C 50.976562 19.6875 51.003906 19.980469 51.003906 20.28125 C 51.003906 20.578125 50.976562 20.875 50.917969 21.167969 C 50.859375 21.460938 50.773438 21.742188 50.65625 22.019531 C 50.542969 22.296875 50.402344 22.558594 50.238281 22.804688 C 50.070312 23.054688 49.882812 23.28125 49.671875 23.492188 C 49.460938 23.707031 49.230469 23.894531 48.984375 24.058594 C 48.734375 24.226562 48.472656 24.363281 48.199219 24.480469 C 47.921875 24.59375 47.636719 24.679688 47.34375 24.738281 C 47.050781 24.796875 46.757812 24.824219 46.457031 24.824219 C 46.160156 24.824219 45.863281 24.796875 45.570312 24.738281 C 45.277344 24.679688 44.996094 24.59375 44.71875 24.480469 C 44.445312 24.363281 44.179688 24.226562 43.933594 24.058594 C 43.683594 23.894531 43.457031 23.707031 43.246094 23.492188 C 43.035156 23.28125 42.84375 23.054688 42.679688 22.804688 C 42.511719 22.558594 42.375 22.296875 42.257812 22.019531 C 42.144531 21.742188 42.058594 21.460938 42 21.167969 C 41.941406 20.875 41.914062 20.578125 41.914062 20.28125 C 41.914062 19.980469 41.941406 19.6875 42 19.394531 C 42.058594 19.101562 42.144531 18.816406 42.261719 18.542969 C 42.375 18.265625 42.515625 18.003906 42.679688 17.757812 C 42.847656 17.507812 43.035156 17.277344 43.246094 17.066406 C 43.457031 16.855469 43.6875 16.667969 43.933594 16.503906 C 44.183594 16.335938 44.445312 16.195312 44.71875 16.082031 C 44.996094 15.96875 45.28125 15.882812 45.570312 15.824219 C 45.863281 15.765625 46.160156 15.734375 46.457031 15.734375 Z M 46.457031 15.734375 " fill-opacity="1" fill-rule="nonzero"/></g><g transform="matrix(1, 0, 0, 1, 62, 19)"><g clip-path="url(#bb23b80235)"><g fill="#07419c" fill-opacity="1"><g transform="translate(0.814666, 15.662409)"><g><path d="M 11.625 0 L 11.609375 -6.78125 L 8.28125 -1.203125 L 7.109375 -1.203125 L 3.796875 -6.640625 L 3.796875 0 L 1.34375 0 L 1.34375 -11.3125 L 3.5 -11.3125 L 7.734375 -4.28125 L 11.90625 -11.3125 L 14.0625 -11.3125 L 14.09375 0 Z M 11.625 0 "/></g></g></g><g fill="#07419c" fill-opacity="1"><g transform="translate(16.24562, 15.662409)"><g><path d="M 1.15625 -8.6875 L 3.6875 -8.6875 L 3.6875 0 L 1.15625 0 Z M 2.421875 -9.90625 C 1.953125 -9.90625 1.570312 -10.039062 1.28125 -10.3125 C 1 -10.582031 0.859375 -10.914062 0.859375 -11.3125 C 0.859375 -11.707031 1 -12.039062 1.28125 -12.3125 C 1.570312 -12.582031 1.953125 -12.71875 2.421875 -12.71875 C 2.878906 -12.71875 3.253906 -12.585938 3.546875 -12.328125 C 3.835938 -12.066406 3.984375 -11.742188 3.984375 -11.359375 C 3.984375 -10.941406 3.835938 -10.59375 3.546875 -10.3125 C 3.253906 -10.039062 2.878906 -9.90625 2.421875 -9.90625 Z M 2.421875 -9.90625 "/></g></g></g><g fill="#07419c" fill-opacity="1"><g transform="translate(21.109192, 15.662409)"><g><path d="M 6.296875 -8.828125 C 7.109375 -8.828125 7.84375 -8.640625 8.5 -8.265625 C 9.164062 -7.890625 9.6875 -7.363281 10.0625 -6.6875 C 10.4375 -6.019531 10.625 -5.238281 10.625 -4.34375 C 10.625 -3.445312 10.4375 -2.660156 10.0625 -1.984375 C 9.6875 -1.316406 9.164062 -0.796875 8.5 -0.421875 C 7.84375 -0.0546875 7.109375 0.125 6.296875 0.125 C 5.191406 0.125 4.320312 -0.222656 3.6875 -0.921875 L 3.6875 3.140625 L 1.15625 3.140625 L 1.15625 -8.6875 L 3.578125 -8.6875 L 3.578125 -7.6875 C 4.191406 -8.445312 5.097656 -8.828125 6.296875 -8.828125 Z M 5.859375 -1.9375 C 6.503906 -1.9375 7.035156 -2.15625 7.453125 -2.59375 C 7.867188 -3.03125 8.078125 -3.613281 8.078125 -4.34375 C 8.078125 -5.070312 7.867188 -5.65625 7.453125 -6.09375 C 7.035156 -6.53125 6.503906 -6.75 5.859375 -6.75 C 5.210938 -6.75 4.679688 -6.53125 4.265625 -6.09375 C 3.859375 -5.65625 3.65625 -5.070312 3.65625 -4.34375 C 3.65625 -3.613281 3.859375 -3.03125 4.265625 -2.59375 C 4.679688 -2.15625 5.210938 -1.9375 5.859375 -1.9375 Z M 5.859375 -1.9375 "/></g></g></g><g fill="#07419c" fill-opacity="1"><g transform="translate(32.258251, 15.662409)"><g><path d="M 9.671875 -4.3125 C 9.671875 -4.28125 9.65625 -4.054688 9.625 -3.640625 L 3.046875 -3.640625 C 3.171875 -3.097656 3.453125 -2.671875 3.890625 -2.359375 C 4.335938 -2.046875 4.890625 -1.890625 5.546875 -1.890625 C 5.992188 -1.890625 6.390625 -1.957031 6.734375 -2.09375 C 7.085938 -2.226562 7.414062 -2.441406 7.71875 -2.734375 L 9.0625 -1.28125 C 8.238281 -0.34375 7.046875 0.125 5.484375 0.125 C 4.492188 0.125 3.625 -0.0625 2.875 -0.4375 C 2.125 -0.820312 1.539062 -1.351562 1.125 -2.03125 C 0.71875 -2.707031 0.515625 -3.476562 0.515625 -4.34375 C 0.515625 -5.195312 0.71875 -5.960938 1.125 -6.640625 C 1.53125 -7.328125 2.082031 -7.863281 2.78125 -8.25 C 3.488281 -8.632812 4.28125 -8.828125 5.15625 -8.828125 C 6.007812 -8.828125 6.78125 -8.640625 7.46875 -8.265625 C 8.15625 -7.898438 8.691406 -7.375 9.078125 -6.6875 C 9.472656 -6.007812 9.671875 -5.21875 9.671875 -4.3125 Z M 5.171875 -6.921875 C 4.597656 -6.921875 4.117188 -6.757812 3.734375 -6.4375 C 3.347656 -6.113281 3.109375 -5.671875 3.015625 -5.109375 L 7.296875 -5.109375 C 7.210938 -5.648438 6.976562 -6.085938 6.59375 -6.421875 C 6.207031 -6.753906 5.734375 -6.921875 5.171875 -6.921875 Z M 5.171875 -6.921875 "/></g></g></g><g fill="#07419c" fill-opacity="1"><g transform="translate(42.453997, 15.662409)"><g><path d="M 3.578125 -7.546875 C 3.867188 -7.960938 4.269531 -8.28125 4.78125 -8.5 C 5.300781 -8.71875 5.894531 -8.828125 6.5625 -8.828125 L 6.5625 -6.5 C 6.28125 -6.519531 6.09375 -6.53125 6 -6.53125 C 5.269531 -6.53125 4.703125 -6.328125 4.296875 -5.921875 C 3.890625 -5.515625 3.6875 -4.910156 3.6875 -4.109375 L 3.6875 0 L 1.15625 0 L 1.15625 -8.6875 L 3.578125 -8.6875 Z M 3.578125 -7.546875 "/></g></g></g><g fill="#07419c" fill-opacity="1"><g transform="translate(49.418129, 15.662409)"><g><path d="M 3.921875 -8.5 L 6.15625 -8.5 L 6.15625 -6.5625 L 3.984375 -6.5625 L 3.984375 0 L 1.46875 0 L 1.46875 -6.5625 L 0.125 -6.5625 L 0.125 -8.5 L 1.46875 -8.5 L 1.46875 -8.890625 C 1.46875 -9.878906 1.757812 -10.660156 2.34375 -11.234375 C 2.9375 -11.816406 3.765625 -12.109375 4.828125 -12.109375 C 5.203125 -12.109375 5.554688 -12.066406 5.890625 -11.984375 C 6.234375 -11.910156 6.519531 -11.800781 6.75 -11.65625 L 6.09375 -9.828125 C 5.800781 -10.023438 5.460938 -10.125 5.078125 -10.125 C 4.304688 -10.125 3.921875 -9.707031 3.921875 -8.875 Z M 3.921875 -8.5 "/></g></g></g><g fill="#07419c" fill-opacity="1"><g transform="translate(56.964094, 15.662409)"><g><path d="M 1.15625 -8.6875 L 3.6875 -8.6875 L 3.6875 0 L 1.15625 0 Z M 2.421875 -9.90625 C 1.953125 -9.90625 1.570312 -10.039062 1.28125 -10.3125 C 1 -10.582031 0.859375 -10.914062 0.859375 -11.3125 C 0.859375 -11.707031 1 -12.039062 1.28125 -12.3125 C 1.570312 -12.582031 1.953125 -12.71875 2.421875 -12.71875 C 2.878906 -12.71875 3.253906 -12.585938 3.546875 -12.328125 C 3.835938 -12.066406 3.984375 -11.742188 3.984375 -11.359375 C 3.984375 -10.941406 3.835938 -10.59375 3.546875 -10.3125 C 3.253906 -10.039062 2.878906 -9.90625 2.421875 -9.90625 Z M 2.421875 -9.90625 "/></g></g></g><g fill="#07419c" fill-opacity="1"><g transform="translate(61.827665, 15.662409)"><g><path d="M 1.15625 -11.984375 L 3.6875 -11.984375 L 3.6875 0 L 1.15625 0 Z M 1.15625 -11.984375 "/></g></g></g><g fill="#07419c" fill-opacity="1"><g transform="translate(66.691237, 15.662409)"><g><path d="M 6.453125 -8.828125 C 7.523438 -8.828125 8.390625 -8.5 9.046875 -7.84375 C 9.710938 -7.195312 10.046875 -6.238281 10.046875 -4.96875 L 10.046875 0 L 7.53125 0 L 7.53125 -4.59375 C 7.53125 -5.28125 7.378906 -5.789062 7.078125 -6.125 C 6.773438 -6.46875 6.335938 -6.640625 5.765625 -6.640625 C 5.128906 -6.640625 4.625 -6.441406 4.25 -6.046875 C 3.875 -5.648438 3.6875 -5.066406 3.6875 -4.296875 L 3.6875 0 L 1.15625 0 L 1.15625 -8.6875 L 3.578125 -8.6875 L 3.578125 -7.671875 C 3.910156 -8.035156 4.320312 -8.316406 4.8125 -8.515625 C 5.3125 -8.722656 5.859375 -8.828125 6.453125 -8.828125 Z M 6.453125 -8.828125 "/></g></g></g><g fill="#07419c" fill-opacity="1"><g transform="translate(77.85646, 15.662409)"><g><path d="M 1.15625 -8.6875 L 3.6875 -8.6875 L 3.6875 0 L 1.15625 0 Z M 2.421875 -9.90625 C 1.953125 -9.90625 1.570312 -10.039062 1.28125 -10.3125 C 1 -10.582031 0.859375 -10.914062 0.859375 -11.3125 C 0.859375 -11.707031 1 -12.039062 1.28125 -12.3125 C 1.570312 -12.582031 1.953125 -12.71875 2.421875 -12.71875 C 2.878906 -12.71875 3.253906 -12.585938 3.546875 -12.328125 C 3.835938 -12.066406 3.984375 -11.742188 3.984375 -11.359375 C 3.984375 -10.941406 3.835938 -10.59375 3.546875 -10.3125 C 3.253906 -10.039062 2.878906 -9.90625 2.421875 -9.90625 Z M 2.421875 -9.90625 "/></g></g></g><g fill="#07419c" fill-opacity="1"><g transform="translate(82.720032, 15.662409)"><g><path d="M 5.359375 0.125 C 4.429688 0.125 3.597656 -0.0625 2.859375 -0.4375 C 2.128906 -0.820312 1.554688 -1.351562 1.140625 -2.03125 C 0.722656 -2.707031 0.515625 -3.476562 0.515625 -4.34375 C 0.515625 -5.207031 0.722656 -5.976562 1.140625 -6.65625 C 1.554688 -7.332031 2.128906 -7.863281 2.859375 -8.25 C 3.597656 -8.632812 4.429688 -8.828125 5.359375 -8.828125 C 6.273438 -8.828125 7.070312 -8.632812 7.75 -8.25 C 8.4375 -7.863281 8.9375 -7.316406 9.25 -6.609375 L 7.296875 -5.5625 C 6.847656 -6.351562 6.195312 -6.75 5.34375 -6.75 C 4.6875 -6.75 4.140625 -6.53125 3.703125 -6.09375 C 3.273438 -5.664062 3.0625 -5.082031 3.0625 -4.34375 C 3.0625 -3.601562 3.273438 -3.015625 3.703125 -2.578125 C 4.140625 -2.148438 4.6875 -1.9375 5.34375 -1.9375 C 6.207031 -1.9375 6.859375 -2.335938 7.296875 -3.140625 L 9.25 -2.0625 C 8.9375 -1.375 8.4375 -0.835938 7.75 -0.453125 C 7.070312 -0.0664062 6.273438 0.125 5.359375 0.125 Z M 5.359375 0.125 "/></g></g></g><g fill="#07419c" fill-opacity="1"><g transform="translate(92.269447, 15.662409)"><g><path d="M 4.671875 -8.828125 C 6.015625 -8.828125 7.046875 -8.503906 7.765625 -7.859375 C 8.492188 -7.222656 8.859375 -6.253906 8.859375 -4.953125 L 8.859375 0 L 6.5 0 L 6.5 -1.078125 C 6.019531 -0.273438 5.132812 0.125 3.84375 0.125 C 3.175781 0.125 2.597656 0.015625 2.109375 -0.203125 C 1.617188 -0.429688 1.242188 -0.742188 0.984375 -1.140625 C 0.722656 -1.546875 0.59375 -2 0.59375 -2.5 C 0.59375 -3.3125 0.894531 -3.945312 1.5 -4.40625 C 2.113281 -4.875 3.054688 -5.109375 4.328125 -5.109375 L 6.328125 -5.109375 C 6.328125 -5.648438 6.160156 -6.066406 5.828125 -6.359375 C 5.492188 -6.660156 4.992188 -6.8125 4.328125 -6.8125 C 3.867188 -6.8125 3.414062 -6.738281 2.96875 -6.59375 C 2.519531 -6.445312 2.140625 -6.253906 1.828125 -6.015625 L 0.921875 -7.765625 C 1.390625 -8.097656 1.957031 -8.359375 2.625 -8.546875 C 3.289062 -8.734375 3.972656 -8.828125 4.671875 -8.828125 Z M 4.46875 -1.5625 C 4.90625 -1.5625 5.289062 -1.660156 5.625 -1.859375 C 5.957031 -2.066406 6.191406 -2.363281 6.328125 -2.75 L 6.328125 -3.640625 L 4.609375 -3.640625 C 3.566406 -3.640625 3.046875 -3.300781 3.046875 -2.625 C 3.046875 -2.289062 3.171875 -2.03125 3.421875 -1.84375 C 3.679688 -1.65625 4.03125 -1.5625 4.46875 -1.5625 Z M 4.46875 -1.5625 "/></g></g></g><g fill="#07419c" fill-opacity="1"><g transform="translate(102.238973, 15.662409)"><g><path d="M 2.109375 0.125 C 1.671875 0.125 1.300781 -0.0234375 1 -0.328125 C 0.695312 -0.628906 0.546875 -1.003906 0.546875 -1.453125 C 0.546875 -1.921875 0.695312 -2.296875 1 -2.578125 C 1.300781 -2.859375 1.671875 -3 2.109375 -3 C 2.554688 -3 2.929688 -2.859375 3.234375 -2.578125 C 3.535156 -2.296875 3.6875 -1.921875 3.6875 -1.453125 C 3.6875 -1.003906 3.535156 -0.628906 3.234375 -0.328125 C 2.929688 -0.0234375 2.554688 0.125 2.109375 0.125 Z M 2.109375 0.125 "/></g></g></g><g fill="#07419c" fill-opacity="1"><g transform="translate(106.359275, 15.662409)"><g><path d="M 5.359375 0.125 C 4.429688 0.125 3.597656 -0.0625 2.859375 -0.4375 C 2.128906 -0.820312 1.554688 -1.351562 1.140625 -2.03125 C 0.722656 -2.707031 0.515625 -3.476562 0.515625 -4.34375 C 0.515625 -5.207031 0.722656 -5.976562 1.140625 -6.65625 C 1.554688 -7.332031 2.128906 -7.863281 2.859375 -8.25 C 3.597656 -8.632812 4.429688 -8.828125 5.359375 -8.828125 C 6.273438 -8.828125 7.070312 -8.632812 7.75 -8.25 C 8.4375 -7.863281 8.9375 -7.316406 9.25 -6.609375 L 7.296875 -5.5625 C 6.847656 -6.351562 6.195312 -6.75 5.34375 -6.75 C 4.6875 -6.75 4.140625 -6.53125 3.703125 -6.09375 C 3.273438 -5.664062 3.0625 -5.082031 3.0625 -4.34375 C 3.0625 -3.601562 3.273438 -3.015625 3.703125 -2.578125 C 4.140625 -2.148438 4.6875 -1.9375 5.34375 -1.9375 C 6.207031 -1.9375 6.859375 -2.335938 7.296875 -3.140625 L 9.25 -2.0625 C 8.9375 -1.375 8.4375 -0.835938 7.75 -0.453125 C 7.070312 -0.0664062 6.273438 0.125 5.359375 0.125 Z M 5.359375 0.125 "/></g></g></g><g fill="#07419c" fill-opacity="1"><g transform="translate(115.795573, 15.662409)"><g><path d="M 5.296875 0.125 C 4.378906 0.125 3.554688 -0.0625 2.828125 -0.4375 C 2.109375 -0.820312 1.539062 -1.351562 1.125 -2.03125 C 0.71875 -2.707031 0.515625 -3.476562 0.515625 -4.34375 C 0.515625 -5.207031 0.71875 -5.976562 1.125 -6.65625 C 1.539062 -7.332031 2.109375 -7.863281 2.828125 -8.25 C 3.554688 -8.632812 4.378906 -8.828125 5.296875 -8.828125 C 6.210938 -8.828125 7.03125 -8.632812 7.75 -8.25 C 8.476562 -7.863281 9.046875 -7.332031 9.453125 -6.65625 C 9.859375 -5.976562 10.0625 -5.207031 10.0625 -4.34375 C 10.0625 -3.476562 9.859375 -2.707031 9.453125 -2.03125 C 9.046875 -1.351562 8.476562 -0.820312 7.75 -0.4375 C 7.03125 -0.0625 6.210938 0.125 5.296875 0.125 Z M 5.296875 -1.9375 C 5.941406 -1.9375 6.472656 -2.15625 6.890625 -2.59375 C 7.304688 -3.03125 7.515625 -3.613281 7.515625 -4.34375 C 7.515625 -5.070312 7.304688 -5.65625 6.890625 -6.09375 C 6.472656 -6.53125 5.941406 -6.75 5.296875 -6.75 C 4.648438 -6.75 4.113281 -6.53125 3.6875 -6.09375 C 3.269531 -5.65625 3.0625 -5.070312 3.0625 -4.34375 C 3.0625 -3.613281 3.269531 -3.03125 3.6875 -2.59375 C 4.113281 -2.15625 4.648438 -1.9375 5.296875 -1.9375 Z M 5.296875 -1.9375 "/></g></g></g><g fill="#07419c" fill-opacity="1"><g transform="translate(126.379104, 15.662409)"><g><path d="M 12.296875 -8.828125 C 13.378906 -8.828125 14.238281 -8.503906 14.875 -7.859375 C 15.519531 -7.222656 15.84375 -6.257812 15.84375 -4.96875 L 15.84375 0 L 13.328125 0 L 13.328125 -4.59375 C 13.328125 -5.28125 13.179688 -5.789062 12.890625 -6.125 C 12.609375 -6.46875 12.207031 -6.640625 11.6875 -6.640625 C 11.09375 -6.640625 10.625 -6.445312 10.28125 -6.0625 C 9.9375 -5.6875 9.765625 -5.117188 9.765625 -4.359375 L 9.765625 0 L 7.234375 0 L 7.234375 -4.59375 C 7.234375 -5.957031 6.6875 -6.640625 5.59375 -6.640625 C 5.007812 -6.640625 4.546875 -6.445312 4.203125 -6.0625 C 3.859375 -5.6875 3.6875 -5.117188 3.6875 -4.359375 L 3.6875 0 L 1.15625 0 L 1.15625 -8.6875 L 3.578125 -8.6875 L 3.578125 -7.6875 C 3.898438 -8.050781 4.289062 -8.332031 4.75 -8.53125 C 5.21875 -8.726562 5.734375 -8.828125 6.296875 -8.828125 C 6.910156 -8.828125 7.460938 -8.703125 7.953125 -8.453125 C 8.453125 -8.210938 8.851562 -7.863281 9.15625 -7.40625 C 9.507812 -7.851562 9.957031 -8.203125 10.5 -8.453125 C 11.050781 -8.703125 11.648438 -8.828125 12.296875 -8.828125 Z M 12.296875 -8.828125 "/></g></g></g></g></g></svg>