<svg xmlns="http://www.w3.org/2000/svg" xmlns:xlink="http://www.w3.org/1999/xlink" width="100" zoomAndPan="magnify" viewBox="0 0 75 74.999997" height="100" preserveAspectRatio="xMidYMid meet" version="1.0"><defs><g/></defs><rect x="-7.5" width="90" fill="#ffffff" y="-7.5" height="89.999996" fill-opacity="1"/><rect x="-7.5" width="90" fill="#dbd9da" y="-7.5" height="89.999996" fill-opacity="1"/><g fill="#000000" fill-opacity="1"><g transform="translate(21.649217, 34.499996)"><g><path d="M 1.9375 -3.03125 L 2.328125 -3.03125 C 2.703125 -3.03125 2.976562 -3.101562 3.15625 -3.25 C 3.34375 -3.394531 3.4375 -3.609375 3.4375 -3.890625 C 3.4375 -4.171875 3.359375 -4.378906 3.203125 -4.515625 C 3.054688 -4.648438 2.816406 -4.71875 2.484375 -4.71875 L 1.9375 -4.71875 Z M 4.671875 -3.9375 C 4.671875 -3.320312 4.476562 -2.847656 4.09375 -2.515625 C 3.707031 -2.191406 3.160156 -2.03125 2.453125 -2.03125 L 1.9375 -2.03125 L 1.9375 0 L 0.71875 0 L 0.71875 -5.71875 L 2.546875 -5.71875 C 3.234375 -5.71875 3.757812 -5.566406 4.125 -5.265625 C 4.488281 -4.960938 4.671875 -4.519531 4.671875 -3.9375 Z M 4.671875 -3.9375 "/></g></g></g><g fill="#000000" fill-opacity="1"><g transform="translate(26.667748, 34.499996)"><g><path d="M 1.9375 -3.171875 L 2.328125 -3.171875 C 2.703125 -3.171875 2.976562 -3.234375 3.15625 -3.359375 C 3.34375 -3.492188 3.4375 -3.695312 3.4375 -3.96875 C 3.4375 -4.238281 3.34375 -4.429688 3.15625 -4.546875 C 2.976562 -4.660156 2.691406 -4.71875 2.296875 -4.71875 L 1.9375 -4.71875 Z M 1.9375 -2.1875 L 1.9375 0 L 0.71875 0 L 0.71875 -5.71875 L 2.390625 -5.71875 C 3.160156 -5.71875 3.734375 -5.570312 4.109375 -5.28125 C 4.484375 -5 4.671875 -4.570312 4.671875 -4 C 4.671875 -3.664062 4.578125 -3.367188 4.390625 -3.109375 C 4.203125 -2.847656 3.941406 -2.640625 3.609375 -2.484375 C 4.460938 -1.203125 5.019531 -0.375 5.28125 0 L 3.9375 0 L 2.578125 -2.1875 Z M 1.9375 -2.1875 "/></g></g></g><g fill="#000000" fill-opacity="1"><g transform="translate(31.94384, 34.499996)"><g><path d="M 5.375 -5.71875 L 5.375 -2.015625 C 5.375 -1.597656 5.273438 -1.226562 5.078125 -0.90625 C 4.890625 -0.59375 4.617188 -0.347656 4.265625 -0.171875 C 3.910156 -0.00390625 3.488281 0.078125 3 0.078125 C 2.269531 0.078125 1.703125 -0.109375 1.296875 -0.484375 C 0.890625 -0.859375 0.6875 -1.375 0.6875 -2.03125 L 0.6875 -5.71875 L 1.890625 -5.71875 L 1.890625 -2.21875 C 1.890625 -1.78125 1.976562 -1.457031 2.15625 -1.25 C 2.332031 -1.039062 2.625 -0.9375 3.03125 -0.9375 C 3.425781 -0.9375 3.710938 -1.039062 3.890625 -1.25 C 4.066406 -1.457031 4.15625 -1.78125 4.15625 -2.21875 L 4.15625 -5.71875 Z M 5.375 -5.71875 "/></g></g></g><g fill="#000000" fill-opacity="1"><g transform="translate(37.984809, 34.499996)"><g><path d="M 4.015625 0 L 0.71875 0 L 0.71875 -5.71875 L 4.015625 -5.71875 L 4.015625 -4.71875 L 1.9375 -4.71875 L 1.9375 -3.46875 L 3.859375 -3.46875 L 3.859375 -2.46875 L 1.9375 -2.46875 L 1.9375 -1 L 4.015625 -1 Z M 4.015625 0 "/></g></g></g><g fill="#000000" fill-opacity="1"><g transform="translate(42.460902, 34.499996)"><g><path d="M 0.71875 -5.71875 L 2.5 -5.71875 C 3.3125 -5.71875 3.898438 -5.597656 4.265625 -5.359375 C 4.628906 -5.128906 4.8125 -4.765625 4.8125 -4.265625 C 4.8125 -3.921875 4.726562 -3.640625 4.5625 -3.421875 C 4.40625 -3.203125 4.195312 -3.070312 3.9375 -3.03125 L 3.9375 -3 C 4.289062 -2.914062 4.546875 -2.757812 4.703125 -2.53125 C 4.867188 -2.3125 4.953125 -2.019531 4.953125 -1.65625 C 4.953125 -1.132812 4.765625 -0.726562 4.390625 -0.4375 C 4.015625 -0.144531 3.503906 0 2.859375 0 L 0.71875 0 Z M 1.9375 -3.453125 L 2.640625 -3.453125 C 2.960938 -3.453125 3.195312 -3.5 3.34375 -3.59375 C 3.488281 -3.695312 3.5625 -3.867188 3.5625 -4.109375 C 3.5625 -4.328125 3.484375 -4.484375 3.328125 -4.578125 C 3.171875 -4.671875 2.914062 -4.71875 2.5625 -4.71875 L 1.9375 -4.71875 Z M 1.9375 -2.484375 L 1.9375 -1 L 2.71875 -1 C 3.050781 -1 3.296875 -1.0625 3.453125 -1.1875 C 3.617188 -1.320312 3.703125 -1.519531 3.703125 -1.78125 C 3.703125 -2.25 3.363281 -2.484375 2.6875 -2.484375 Z M 1.9375 -2.484375 "/></g></g></g><g fill="#000000" fill-opacity="1"><g transform="translate(47.830653, 34.499996)"><g><path d="M 4.21875 0 L 3.796875 -1.359375 L 1.71875 -1.359375 L 1.3125 0 L 0 0 L 2.015625 -5.734375 L 3.5 -5.734375 L 5.515625 0 Z M 3.515625 -2.375 C 3.128906 -3.601562 2.910156 -4.296875 2.859375 -4.453125 C 2.816406 -4.617188 2.785156 -4.75 2.765625 -4.84375 C 2.679688 -4.507812 2.4375 -3.6875 2.03125 -2.375 Z M 3.515625 -2.375 "/></g></g></g></svg>